<?xml version="1.0" encoding="UTF-8"?>
<svg version="1.1" viewBox="0 0 2048 1448" width="3308" height="2339" xmlns="http://www.w3.org/2000/svg">
<path transform="translate(0)" d="m0 0h2048v1448h-2048z" fill="#FEFEFE"/>
<path transform="translate(1263,158)" d="m0 0 12 1 13 4 10 5 9 7 8 8 8 13 5 16 1 8v410l-3 17-8 16-9 11-12 9-13 6-12 3h-19l-15-4-14-8-18-13-19-14-14-10-36-26-4-3-16-5v-111l8-5 1-3-3-1-7 3-25 16-88 56-16 10h-7l-15-9-135-86-12-9-12-11-9-10-11-16-8-16-6-16-4-17-2-23 4 1 24 15 25 16 19 12 132 84 10 6 9-1 20-13 110-70 19-12 17-11 11-3 12 1 10 5 8 9 4 11 1 168 4 5 17 12 19 14 8 5h8l3-1 2-6z" fill="#EB8433"/>
<path transform="translate(700,158)" d="m0 0 16 1 15 5 11 6 20 13 22 14 47 30 72 46 17 11 22 14 25 16 13 8h6l12-7 17-11 47-30 97-62 22-14 14-9h2v11l-3 20-6 20-9 19-10 15-11 13-9 9-16 12-24 15-17 11-25 16-47 30-33 21h-7l-15-9-17-11-22-14-72-46-122-78-14-9h-8l-5 5v371l5 5h8l17-12 19-14 8-6h2l1-3 1-63h3l22 14 10 8 12 12 9 14 6 14 4 17v17l-4 5-90 65-13 6-12 3h-18l-15-4-14-7-12-11-8-11-5-11-3-12v-421l3-13 7-14 9-11 10-8 14-7 11-3z" fill="#2C66A2"/>
<path transform="translate(1132,845)" d="m0 0h31l17 3 16 5 15 8 13 11 9 10 10 15 8 16 6 15 5 19 3 19 1 11v12h62v-125l3-8 7-6 5-2 17-1 18 2 14 4 14 7 12 9 12 11 10 12 10 17 7 18 6 23 3 19v40l-5 8-5 3-4 1h-604l-2 9-7 13-11 13-10 8-14 8-15 5-11 2-9-1-5-5-1-3v-7l6-11 4-3 15-4 10-6 9-9 8-14 3-13 1-123 5-6 2-1h15l6 5 2 5v106h243l-7-14-3-13-1-9v-17l3-17 5-12 7-11 9-10 8-7h-23l5-9 8-11 9-8 8-4z" fill="#EB8433"/>
<path transform="translate(667,873)" d="m0 0h10l6 4 4 6v121l-3 23-4 11-6 9-9 10-12 9-16 8-14 4-14 2h-19l-17-3-19-7-15-9-10-8-8-8-8-13-6-15-4-16-3-25v-52l3-6 6-5 8-1 7 3 5 6 1 3 1 46 3 22 5 17 6 11 9 10 13 9 10 5 16 4h17l16-4 11-6 8-7 7-11 4-12 1-124 4-7z" fill="#EB8433"/>
<path transform="translate(525,1131)" d="m0 0h15l7 3 4 11 14 53 2-4 15-56 3-5 5-2h16l7 3 2 3 1 14v75l-2 7-3 3-7 1-5-3-3-5-1-69-17 67-3 6-4 3-8 1-6-3-3-4-7-26-11-44-1 68-2 5-3 3-7 1-5-3-3-7v-86l3-7z" fill="#2F67A1"/>
<path transform="translate(726,783)" d="m0 0h13l6 3 3 4v224l-5 6-3 1h-15l-6-4-2-4v-222l3-5z" fill="#EB8433"/>
<path transform="translate(1361,881)" d="m0 0 10 1 12 4 11 6 10 9 8 10 7 10 8 16 5 17 2 13v24h-75v-109z" fill="#FEFEFE"/>
<path transform="translate(1043,1131)" d="m0 0h47l10 2 9 5 6 7 3 8v14l-4 9-9 8-11 4 12 12 9 14 5 12-1 7-4 3-8 1-6-4-9-14-11-18-7-7-5-2-14-1v36l-3 7-5 3-8-1-4-4-1-2v-92l2-4z" fill="#2F67A1"/>
<path transform="translate(1375,1129)" d="m0 0 7 1 5 5 44 66 1-66 5-5 6-1 5 3 3 5v91l-3 6-6 3-9-1-5-4-16-24-15-23-12-18-1 62-3 5-5 3-7-1-4-4-1-3v-90l3-6 4-3z" fill="#2D66A2"/>
<path transform="translate(1237,1129)" d="m0 0 8 1 6 4 5 10 20 50 11 27 1 8-4 6-4 2-8-1-4-5-8-20-42-1-3 10-6 14-5 3-7-1-5-5-1-6 6-16 16-41 12-30 6-7z" fill="#2E66A1"/>
<path transform="translate(736,1129)" d="m0 0 8 1 6 4 5 10 25 62 6 15 1 8-4 6-4 2-7-1-5-5-8-20-42-1-3 10-6 14-5 3-7-1-5-5-1-5 5-15 21-53 9-22 7-6z" fill="#2E66A1"/>
<path transform="translate(872,1129)" d="m0 0 6 1 5 4 1 3v35h45v-33l3-7 6-3 7 1 5 6v94l-2 4-6 3-7-1-5-5-1-4v-38h-45v40l-3 5-5 3-8-1-4-5-1-3v-90l3-6z" fill="#2D66A2"/>
<path transform="translate(1154,889)" d="m0 0h2v100h-27l-6-9-5-11-4-15-1-5v-12l4-12 6-12 11-12 9-7z" fill="#FEFEFE"/>
<path transform="translate(1187,889)" d="m0 0 5 2 11 8 9 11 8 16 8 27 3 17 1 19h-45z" fill="#FEFEFE"/>
<path transform="translate(1219,113)" d="m0 0 9 1 8 4 6 7 2 5v12l-4 8-5 5-8 4-1 11-5 3-4-3-1-11-10-5-6-9-1-2v-13l4-8 7-6z" fill="#6D6D71"/>
<path transform="translate(735,493)" d="m0 0h5l2 2 1 7 8 4 5 5 4 7 1 9-3 9-4 6-8 5-4 1h-8l-10-4-7-8-2-6v-10l5-10 6-5 4-2h3v-7z" fill="#6D6E71"/>
<path transform="translate(740,1286)" d="m0 0h7l7 4v-3h6v34l-3 8-4 4-3 1h-12l-6-4-2-6h6l2 4h13l3-12-6 4h-9l-6-4-3-5-1-4v-7l3-8 6-5z" fill="#808284"/>
<path transform="translate(1055,1147)" d="m0 0h29l8 3 4 5 1 9-3 6-3 3-6 2h-30z" fill="#FEFEFE"/>
<path transform="translate(590,790)" d="m0 0h16l5 3 3 4v21l-4 5-2 1h-20l-5-4-1-2v-21l5-6z" fill="#EB8433"/>
<path transform="translate(691,1286)" d="m0 0h7l8 4 4 7v12l-4 8-7 4h-9l-6-3-5-8v-12l3-6 6-5z" fill="#808284"/>
<path transform="translate(1053,1274)" d="m0 0h11l6 3 4 5 1 4h-7l-2-4-4-2h-7l-3 1-1 2v6l5 3 13 4 5 4 2 4v7l-4 6-4 3-4 1h-10l-7-3-5-6-1-4h7l3 5 5 2h7l4-2 1-2v-6l-6-4-13-4-5-5-1-2v-7l3-5 4-3z" fill="#808284"/>
<path transform="translate(1317,1286)" d="m0 0h7l7 3 4 7v9h-23l2 7 3 3h7l4-4h6l-1 5-5 4-3 1h-9l-7-4-3-6-1-9 2-8 5-6z" fill="#808284"/>
<path transform="translate(1107,1286)" d="m0 0h7l6 3 4 5 1 3v8h-24l4 9 2 1h7l4-4h6l-2 6-7 4h-10l-6-4-3-5-1-4v-9l4-8 5-4z" fill="#808284"/>
<path transform="translate(1238,1153)" d="m0 0h2l14 39v2h-30l3-10z" fill="#FEFEFE"/>
<path transform="translate(737,1153)" d="m0 0h2l14 39v2h-30l3-10z" fill="#FEFEFE"/>
<path transform="translate(1217,123)" d="m0 0h9l6 4 3 6v7l-4 6-4 3-8 1-6-3-4-4-1-3v-8l4-6z" fill="#FEFEFE"/>
<path transform="translate(733,512)" d="m0 0h10l7 6 1 2v9l-3 5-5 4-6 1-8-3-4-5-1-9 4-7z" fill="#FEFEFE"/>
<path transform="translate(975,1286)" d="m0 0h8l6 3 3 4v3h-6l-3-4h-8l-1 5 8 3 8 4 3 4-1 8-4 4-3 1h-11l-5-3-3-4v-3h6l3 4h9l1-1v-5l-7-3-9-4-2-3v-7l5-5z" fill="#808284"/>
<path transform="translate(819,1286)" d="m0 0h8l6 3 2 3v4h-5l-2-4h-11v6l12 3 6 4 1 2v8l-5 5-3 1h-10l-6-3-3-5v-2h6l4 4h9l1-5-1-2-12-4-5-4-1-6 3-5z" fill="#808284"/>
<path transform="translate(631,1275)" d="m0 0h7v40h23v5h-30z" fill="#808284"/>
<path transform="translate(930,1286)" d="m0 0h8l7 4 2 3v4h-6l-5-5-7 1-3 5v11l3 5 1 1h7l3-3 1-2h6l-1 5-5 5-3 1h-9l-7-4-3-6-1-9 3-9 5-5z" fill="#808284"/>
<path transform="translate(1270,1286)" d="m0 0h7l6 3 3 3 1 5h-6l-5-5-7 1-3 4-1 10 3 7 2 1h7l4-5h6l-2 6-5 4-2 1h-10l-6-4-4-8v-10l4-8 5-4z" fill="#808284"/>
<path transform="translate(1181,1287)" d="m0 0h7l7 22v4h2l2-9 6-17h6l-1 6-10 27h-8l-11-31z" fill="#808284"/>
<path transform="translate(692,1291)" d="m0 0 7 1 4 4 1 4v8l-3 6-3 2h-7l-4-4-2-5v-7l3-7z" fill="#FEFEFE"/>
<path transform="translate(858,1277)" d="m0 0h6l1 9 7 1v5h-8l1 20 1 3 5 1-1 5h-7l-4-3-1-3v-23h-5v-5h5z" fill="#808284"/>
<path transform="translate(743,1291)" d="m0 0 7 1 3 4 1 3v8l-3 6-3 2h-6l-5-4-1-2v-11l3-5z" fill="#FEFEFE"/>
<path transform="translate(1160,1286)" d="m0 0h3v6l-8 4-2 4-1 20h-6v-33h6l1 4 5-4z" fill="#808284"/>
<path transform="translate(736,339)" d="m0 0 5 1 1 1v26l-2 2-6-1-1-2v-24z" fill="#6C6C70"/>
<path transform="translate(737,390)" d="m0 0 5 2v26l-2 2h-5l-2-3v-24z" fill="#6C6C70"/>
<path transform="translate(735,442)" d="m0 0 7 1v26l-2 2h-5l-2-2v-25z" fill="#6C6C70"/>
<path transform="translate(1219,244)" d="m0 0h5l2 2v25l-2 2h-5l-2-2v-25z" fill="#6C6C70"/>
<path transform="translate(768,319)" d="m0 0 6 1 16 10 1 5-2 3-7-1-16-10-1-5z" fill="#6E6E72"/>
<path transform="translate(1221,193)" d="m0 0 5 3v24l-3 3-5-1-1-1v-25z" fill="#6C6C70"/>
<path transform="translate(1026,419)" d="m0 0 5 1 2 5-5 5-14 8-6-1-1-5 4-4z" fill="#6E6E72"/>
<path transform="translate(930,418)" d="m0 0 5 1 16 10 1 6-5 3-11-6-9-6v-6z" fill="#6E6E72"/>
<path transform="translate(1107,371)" d="m0 0 5 1 1 1v5l-5 4-14 8-5-1-1-1v-5l5-4z" fill="#6E6E72"/>
<path transform="translate(848,369)" d="m0 0 7 1 16 10v6l-2 2-6-1-16-10-1-6z" fill="#6E6E72"/>
<path transform="translate(890,393)" d="m0 0 6 2 14 9 2 5-4 4-6-2-14-9-2-5z" fill="#6E6E72"/>
<path transform="translate(808,344)" d="m0 0h5l17 11 1 1v5l-2 2h-5l-17-11-1-1v-5z" fill="#6E6E72"/>
<path transform="translate(1187,323)" d="m0 0 6 1 1 5-4 4-15 9-5-1-2-5 4-4z" fill="#6E6E72"/>
<path transform="translate(733,296)" d="m0 0 5 2 11 7 1 1v5l-2 2h-6l-1 4-5 1-3-3z" fill="#6D6D71"/>
<path transform="translate(970,443)" d="m0 0 5 1 3 2 5-1 3-2 5 1 1 1-1 7-10 6-4-1-9-6-1-5z" fill="#6E6E72"/>
<path transform="translate(1147,347)" d="m0 0 5 1 2 4-1 3-18 11-6-1-1-6 10-7z" fill="#6E6E72"/>
<path transform="translate(1220,294)" d="m0 0 5 1 1 2v14l-9 6-5 1-3-2 1-7 5-3h2v-10z" fill="#6D6D71"/>
<path transform="translate(1066,395)" d="m0 0 6 1 1 6-10 7-9 5-5-1-1-1v-5l5-4z" fill="#6E6E72"/>
<path transform="translate(891,1287)" d="m0 0h7v33h-7z" fill="#808284"/>
<path transform="translate(1231,1287)" d="m0 0h6v33h-6z" fill="#808284"/>
<path transform="translate(783,1287)" d="m0 0h6v33h-6z" fill="#808284"/>
<path transform="translate(1317,1291)" d="m0 0h7l4 4 1 6h-17l1-6z" fill="#FEFEFE"/>
<path transform="translate(1107,1291)" d="m0 0h7l4 4 1 5-1 1h-16l1-7z" fill="#FEFEFE"/>
<path transform="translate(891,1272)" d="m0 0h7v7h-7z" fill="#808284"/>
<path transform="translate(1231,1272)" d="m0 0h6v7h-6z" fill="#808284"/>
<path transform="translate(783,1272)" d="m0 0h6v7h-6z" fill="#808284"/>
</svg>
